<?xml version="1.0" standalone="no"?>
<!DOCTYPE svg PUBLIC "-//W3C//DTD SVG 20010904//EN"
 "http://www.w3.org/TR/2001/REC-SVG-20010904/DTD/svg10.dtd">
<svg version="1.0" xmlns="http://www.w3.org/2000/svg"
 width="4606.000000pt" height="5127.000000pt" viewBox="0 0 4606.000000 5127.000000"
 preserveAspectRatio="xMidYMid meet">

<g transform="translate(0.000000,5127.000000) scale(0.100000,-0.100000)"
fill="#000000" stroke="none">
<path d="M20232 50473 c-36 -31 -147 -398 -188 -623 -24 -128 -25 -445 -2
-544 l15 -69 -251 7 c-1494 40 -2908 -330 -4054 -1062 -399 -255 -695 -495
-1058 -857 -339 -339 -487 -521 -954 -1175 -567 -794 -828 -1081 -1322 -1452
-427 -322 -924 -580 -1315 -684 -194 -52 -282 -65 -478 -71 -170 -5 -204 -3
-320 18 -159 28 -187 28 -231 -6 -27 -21 -34 -33 -34 -60 0 -32 7 -39 93 -98
324 -226 600 -349 854 -381 l95 -12 -99 -91 c-224 -207 -475 -504 -657 -778
-183 -275 -305 -510 -405 -777 -92 -245 -184 -635 -161 -678 13 -24 44 -33 86
-26 47 9 232 157 499 401 153 139 154 140 93 45 -319 -499 -508 -1036 -585
-1665 -25 -211 -25 -783 0 -1000 22 -183 80 -562 108 -705 163 -831 546 -1586
1226 -2416 252 -309 594 -679 1159 -1254 175 -179 382 -391 459 -470 617 -638
1048 -1164 1343 -1640 l71 -115 -11 -70 c-14 -93 -5 -312 18 -395 24 -93 73
-202 132 -299 29 -46 52 -89 52 -94 0 -22 151 -349 266 -577 180 -356 321
-570 400 -607 38 -19 40 -26 69 -238 37 -276 107 -570 193 -810 37 -105 38
-113 31 -184 -9 -84 -44 -212 -105 -387 l-42 -121 31 -161 c17 -89 34 -162 38
-162 5 0 24 28 43 63 38 67 72 177 108 342 13 58 26 105 29 105 3 0 18 -96 33
-212 16 -122 34 -223 42 -235 9 -14 24 -23 39 -23 25 0 25 1 25 88 0 50 -11
149 -26 231 -14 79 -24 145 -22 146 2 2 37 -52 77 -120 278 -463 654 -796
1196 -1060 475 -232 979 -370 1590 -437 160 -17 787 -17 955 0 606 63 1022
188 1425 430 187 113 337 232 520 416 262 262 422 489 595 841 107 217 176
393 239 609 114 387 181 840 181 1212 l0 142 87 82 c301 285 553 427 868 491
99 20 118 21 196 10 159 -21 361 -90 506 -173 100 -57 255 -175 389 -296 l112
-101 6 -168 c13 -316 43 -585 92 -826 221 -1090 797 -1918 1624 -2336 353
-179 668 -265 1195 -328 216 -25 845 -25 1060 0 875 104 1619 387 2157 820
445 358 793 935 972 1613 l34 129 1 -72 c1 -64 4 -74 26 -91 l26 -20 -51 -339
c-49 -322 -123 -794 -136 -858 -5 -26 -4 -28 9 -15 9 10 23 86 42 230 15 118
32 219 36 225 5 5 9 -2 9 -17 0 -59 80 -342 117 -416 21 -41 43 -77 49 -79 6
-2 23 63 41 158 l31 160 -54 162 c-83 245 -93 297 -96 482 -3 205 16 303 63
324 16 7 36 26 44 41 8 16 37 136 65 267 95 453 107 492 222 738 5 11 47 68
93 128 83 106 259 350 344 476 104 154 200 423 248 696 12 74 17 153 17 305
-1 202 -5 237 -46 416 l-11 51 103 229 c126 277 365 760 485 979 122 223 290
501 555 916 370 579 359 564 475 652 341 257 675 596 948 962 452 605 788
1313 966 2036 74 300 107 495 143 844 19 188 16 856 -5 1085 -50 528 -133 994
-282 1590 -153 608 -330 1090 -545 1480 -459 834 -1139 1408 -2125 1795 -221
87 -391 140 -783 245 -430 115 -600 154 -759 176 -70 9 -129 18 -131 19 -1 1
-14 49 -28 106 -229 952 -890 1869 -1827 2533 -612 433 -1390 792 -2232 1030
-837 236 -1691 300 -3000 226 -99 -6 -421 -26 -715 -45 -1460 -94 -2000 -96
-2520 -9 -541 90 -921 304 -1065 598 -66 134 -78 187 -80 356 l-2 145 -25 3
c-13 2 -34 -5 -46 -15z m8703 -8988 c457 -16 873 -115 1185 -282 193 -103 454
-290 673 -483 571 -502 1132 -1301 1416 -2018 l73 -183 -12 -107 c-42 -396
-161 -799 -350 -1187 -442 -908 -1232 -1552 -2104 -1716 -79 -15 -169 -23
-311 -26 -209 -6 -233 -10 -275 -55 -35 -37 -26 -60 55 -137 420 -398 1081
-607 2025 -639 l195 -7 7 -55 c20 -164 29 -382 38 -905 11 -612 16 -739 55
-1245 14 -173 27 -371 30 -440 l6 -125 -36 95 c-19 52 -69 163 -110 246 -321
654 -864 1073 -1605 1238 -234 51 -783 121 -1185 150 -1411 102 -2466 -131
-3175 -701 -167 -134 -351 -333 -474 -512 -28 -41 -80 -106 -114 -145 -84 -93
-133 -166 -192 -284 -81 -162 -157 -409 -189 -612 -7 -41 -14 -81 -17 -89 -3
-9 -29 9 -77 56 -267 259 -702 393 -1175 362 -369 -24 -666 -141 -908 -355
l-81 -72 -12 81 c-30 197 -114 473 -193 632 -45 89 -130 214 -185 270 -27 28
-77 91 -110 140 -99 144 -182 241 -319 375 -198 193 -394 332 -644 460 -811
411 -1917 518 -3380 324 -544 -72 -770 -130 -1075 -279 -245 -119 -403 -231
-596 -424 -69 -69 -154 -164 -189 -211 -35 -47 -67 -89 -72 -95 -6 -6 -7 24
-3 75 3 47 22 373 41 725 38 708 68 1202 84 1400 25 292 114 716 209 984 22
62 42 115 45 118 3 3 36 -21 73 -54 163 -144 358 -274 573 -382 170 -86 408
-181 454 -181 43 0 106 50 106 84 0 12 -35 62 -81 116 -201 237 -350 509 -395
723 -18 90 -18 247 1 321 76 291 377 498 864 596 235 47 409 62 736 62 633 0
1122 -55 2475 -277 838 -138 1244 -193 1681 -230 1062 -89 2003 20 2853 330
377 137 779 348 1097 576 583 417 1029 970 1429 1769 143 286 265 566 535
1230 175 429 295 715 385 917 31 69 33 71 64 68 17 -2 99 -7 181 -10z m-9680
-8329 c729 -79 1244 -244 1681 -537 675 -453 1043 -1190 1011 -2024 -25 -635
-205 -1351 -459 -1825 -259 -483 -605 -830 -1043 -1045 -278 -136 -627 -226
-1095 -280 -1324 -152 -2423 219 -3101 1045 -438 534 -673 1187 -719 2000 -32
552 61 1071 270 1507 115 240 238 412 414 581 210 199 444 326 741 401 337 84
771 153 1140 181 77 6 160 12 185 14 125 10 834 -3 975 -18z m9367 14 c564
-38 1224 -153 1493 -260 450 -179 789 -539 998 -1060 145 -361 207 -710 207
-1163 0 -753 -188 -1425 -550 -1965 -735 -1095 -2069 -1527 -3721 -1206 -806
156 -1356 582 -1729 1339 -202 409 -326 857 -397 1425 -25 204 -25 610 0 770
42 266 102 460 212 685 159 326 369 580 667 805 313 237 663 395 1118 504 241
58 560 106 835 125 176 12 690 13 867 1z"/>
<path d="M17840 35059 c-915 -73 -1501 -323 -1852 -790 -117 -156 -289 -474
-338 -623 -21 -65 -22 -70 -6 -102 l16 -34 117 77 c439 286 593 362 842 413
165 33 318 43 576 37 268 -6 430 -23 885 -92 376 -57 564 -92 835 -155 116
-27 316 -74 447 -104 434 -102 721 -153 998 -177 187 -16 552 -6 690 19 186
34 184 33 297 144 l102 101 52 126 c91 220 190 544 172 562 -13 13 -299 113
-498 175 -677 209 -1415 344 -2245 410 -230 18 -922 27 -1090 13z"/>
<path d="M28100 35063 c-25 -1 -124 -7 -220 -13 -989 -62 -1999 -270 -2817
-581 l-22 -8 26 -93 c42 -156 82 -276 146 -438 l61 -155 102 -101 c96 -95 106
-102 166 -117 142 -36 257 -49 475 -54 419 -10 708 33 1554 231 551 129 661
150 1174 225 471 70 539 75 875 76 272 0 318 -3 429 -23 273 -49 447 -129 844
-389 87 -57 162 -103 167 -103 13 0 30 35 30 62 0 110 -238 552 -408 758 -346
419 -955 660 -1820 719 -136 10 -643 12 -762 4z"/>
<path d="M18745 32879 c-261 -19 -554 -85 -781 -175 -354 -139 -673 -346 -949
-616 -178 -173 -252 -262 -287 -345 -71 -166 -156 -454 -173 -588 l-6 -50 53
90 c162 271 325 482 533 690 286 286 587 486 940 624 103 40 332 111 358 111
7 0 -25 -20 -71 -45 -133 -71 -230 -143 -337 -250 -196 -194 -318 -415 -383
-688 -24 -101 -26 -131 -27 -312 0 -159 4 -217 19 -285 62 -285 192 -526 391
-725 547 -550 1451 -550 2001 -1 194 194 305 392 376 666 40 153 50 409 23
571 -49 298 -183 558 -394 769 -107 107 -188 170 -293 230 -32 17 -58 34 -58
36 0 10 209 -73 317 -126 206 -102 381 -228 546 -394 296 -297 462 -632 617
-1246 22 -85 47 -184 57 -220 l17 -65 9 35 c13 50 1 388 -18 500 -37 217 -103
426 -195 615 -276 569 -878 1012 -1560 1149 -212 43 -512 61 -725 45z m47
-492 c142 -70 228 -199 236 -352 9 -179 -81 -331 -246 -412 -52 -26 -66 -28
-172 -28 -107 0 -119 2 -175 29 -162 80 -252 232 -243 411 9 175 118 315 293
378 38 13 73 17 141 14 82 -2 100 -7 166 -40z m-701 -772 c82 -43 92 -168 17
-217 -90 -59 -198 -1 -198 105 0 96 97 155 181 112z"/>
<path d="M17040 30348 c0 -17 66 -97 115 -140 108 -95 425 -270 655 -361 212
-84 444 -144 730 -188 210 -33 642 -33 910 -1 382 46 705 114 989 208 140 46
361 147 361 166 0 6 -8 7 -17 3 -113 -44 -392 -113 -648 -159 -1032 -188
-1629 -165 -2305 89 -308 115 -559 236 -697 336 -87 63 -93 66 -93 47z"/>
<path d="M27345 32918 c-529 -53 -1060 -300 -1420 -662 -230 -231 -374 -460
-476 -755 -71 -206 -101 -352 -119 -573 -10 -121 -4 -356 8 -343 6 6 36 118
88 324 75 305 190 613 300 807 197 346 544 655 923 824 107 48 299 115 306
108 2 -2 -29 -23 -68 -46 -341 -201 -576 -525 -668 -922 -29 -121 -37 -401
-15 -530 24 -149 61 -264 131 -407 197 -403 549 -673 1005 -770 119 -25 418
-25 543 0 283 57 530 189 733 391 533 533 563 1370 70 1948 -78 91 -183 183
-285 250 -42 27 -78 52 -80 54 -12 12 205 -70 306 -115 475 -212 894 -577
1224 -1068 48 -73 107 -167 130 -208 23 -42 43 -74 45 -72 13 13 -60 309 -116
472 -79 229 -89 245 -299 455 -268 270 -477 423 -776 570 -303 149 -564 226
-895 264 -147 17 -445 19 -595 4z m20 -466 c174 -82 278 -271 248 -449 -49
-285 -353 -444 -605 -318 -316 159 -316 601 0 760 72 36 117 45 209 41 66 -3
95 -10 148 -34z m-685 -787 c38 -20 60 -63 60 -116 0 -35 -6 -48 -39 -80 -34
-34 -44 -39 -86 -39 -42 0 -52 5 -86 39 -33 32 -39 45 -39 80 0 80 47 130 123
131 21 0 51 -7 67 -15z"/>
<path d="M29430 30339 c-97 -70 -294 -169 -520 -262 -381 -158 -694 -238
-1050 -268 -252 -22 -695 -1 -1015 47 -55 8 -116 17 -135 19 -42 5 -384 67
-488 90 -109 23 -262 62 -353 91 -44 14 -86 23 -92 21 -19 -7 228 -122 348
-162 237 -79 673 -174 915 -200 30 -3 75 -8 100 -10 372 -41 632 -40 923 5
376 58 649 144 978 311 196 99 345 197 420 275 112 118 99 136 -31 43z"/>
<path d="M22485 29468 c-2 -7 -83 -239 -179 -515 -195 -560 -382 -1129 -427
-1303 -28 -106 -52 -302 -50 -403 1 -54 28 -109 102 -207 254 -336 656 -592
1072 -682 146 -31 427 -32 572 0 318 68 627 229 841 436 93 90 109 117 71 124
-9 2 -60 -28 -114 -66 -421 -301 -800 -420 -1133 -356 -260 49 -605 218 -843
412 -143 117 -330 319 -372 402 -9 19 -25 43 -34 54 -21 23 -18 155 5 271 9
44 86 323 171 620 138 477 318 1120 337 1198 6 27 -10 40 -19 15z"/>
<path d="M26953 25364 c-42 -21 -74 -88 -82 -168 l-6 -61 -80 -57 c-190 -137
-430 -236 -840 -348 -82 -23 -339 -95 -570 -161 -674 -193 -968 -264 -1456
-353 -507 -93 -953 -148 -1504 -188 -192 -14 -1497 -18 -1546 -5 -18 4 -40 28
-69 71 -60 93 -120 146 -165 146 -48 0 -88 -22 -122 -67 -25 -32 -28 -45 -27
-102 2 -73 24 -136 68 -188 84 -100 225 -124 491 -83 71 11 281 32 465 45
1041 78 1734 160 2605 306 523 88 809 151 1260 279 138 39 363 100 500 136
459 119 707 216 926 362 103 69 105 70 149 62 25 -5 67 -9 94 -10 43 0 53 4
81 34 40 43 57 103 43 154 -24 87 -88 175 -145 198 -39 17 -31 17 -70 -2z"/>
<path d="M24540 22955 c-401 -49 -1205 -79 -1730 -65 -121 3 -254 -12 -354
-41 -49 -14 -39 -25 64 -67 228 -92 426 -103 1090 -62 386 24 677 72 848 139
52 21 174 81 202 100 18 13 25 13 -120 -4z"/>
<path d="M28214 16592 c-1338 -2595 -3130 -5943 -4514 -8432 -607 -1091 -602
-1082 -611 -1073 -4 4 -122 213 -262 463 -1416 2535 -3068 5613 -4690 8740
-160 308 -176 335 -198 332 -51 -5 -277 -132 -571 -320 -235 -150 -795 -529
-1041 -705 -38 -26 -70 -47 -71 -45 -2 2 -10 58 -19 126 -13 102 -20 128 -42
157 -93 121 -295 161 -515 102 -232 -62 -1073 -457 -1718 -806 -1143 -618
-2444 -1456 -3598 -2316 l-270 -202 7 -59 c4 -32 8 -77 8 -99 l1 -40 -253 -89
c-1909 -672 -3700 -1415 -4797 -1991 -871 -457 -1437 -845 -1714 -1175 -334
-398 -675 -1136 -1061 -2295 -395 -1186 -773 -2596 -1301 -4855 -69 -294 -161
-688 -204 -875 -44 -187 -80 -346 -80 -352 0 -10 4475 -13 22340 -13 17865 0
22340 3 22340 13 0 6 -36 165 -80 352 -43 187 -135 581 -204 875 -527 2257
-906 3670 -1301 4855 -386 1159 -727 1897 -1061 2295 -558 665 -2289 1569
-4999 2610 -321 123 -1021 383 -1227 455 -73 26 -77 29 -73 54 15 87 35 335
28 340 -4 3 -114 85 -243 182 -1115 833 -2408 1669 -3550 2294 -592 324 -1428
724 -1715 820 -258 87 -462 60 -577 -74 -32 -38 -35 -48 -50 -161 -9 -67 -18
-124 -21 -127 -3 -2 -124 78 -269 179 -899 630 -1491 1011 -1665 1072 l-42 15
-117 -227z"/>
</g>
</svg>
